<svg width="32" height="30" viewBox="0 0 32 30" fill="none" xmlns="http://www.w3.org/2000/svg">
<path d="M2.6665 8.75L13.5531 15.8943C14.4346 16.4728 14.8754 16.7621 15.3549 16.8741C15.7784 16.9731 16.2213 16.9731 16.6448 16.8741C17.1243 16.7621 17.565 16.4728 18.4466 15.8943L29.3332 8.75M9.0665 25H22.9332C25.1734 25 26.2935 25 27.1491 24.5913C27.9018 24.2317 28.5137 23.6581 28.8972 22.9525C29.3332 22.1503 29.3332 21.1002 29.3332 19V11C29.3332 8.8998 29.3332 7.8497 28.8972 7.04754C28.5137 6.34193 27.9018 5.76825 27.1491 5.40873C26.2935 5 25.1734 5 22.9332 5H9.0665C6.82629 5 5.70619 5 4.85054 5.40873C4.09789 5.76825 3.48597 6.34193 3.10248 7.04754C2.6665 7.8497 2.6665 8.8998 2.6665 11V19C2.6665 21.1002 2.6665 22.1503 3.10248 22.9525C3.48597 23.6581 4.09789 24.2317 4.85054 24.5913C5.70619 25 6.82629 25 9.0665 25Z" stroke="white" stroke-width="2" stroke-linecap="round" stroke-linejoin="round"/>
</svg>
