<svg width="32" height="30" viewBox="0 0 32 30" fill="none" xmlns="http://www.w3.org/2000/svg">
<path d="M11.1737 11.0666C12.1017 12.8786 13.3667 14.5769 14.9689 16.0789C16.571 17.5808 18.3825 18.7668 20.3153 19.6368C20.4816 19.7117 20.5647 19.7491 20.6699 19.7778C21.0437 19.88 21.5027 19.8066 21.8193 19.5941C21.9083 19.5343 21.9846 19.4628 22.137 19.3199C22.6031 18.8829 22.8362 18.6644 23.0706 18.5216C23.9544 17.9828 25.0938 17.9828 25.9777 18.5216C26.2121 18.6644 26.4451 18.8829 26.9113 19.3199L27.1711 19.5635C27.8797 20.2278 28.234 20.56 28.4265 20.9167C28.8092 21.6262 28.8092 22.464 28.4265 23.1734C28.234 23.5302 27.8797 23.8623 27.1711 24.5266L26.9609 24.7237C26.2548 25.3857 25.9017 25.7167 25.4216 25.9695C24.889 26.2501 24.0616 26.4518 23.4507 26.45C22.9001 26.4485 22.5238 26.3484 21.7712 26.1481C17.7267 25.0719 13.9102 23.0413 10.7262 20.0563C7.54224 17.0714 5.37627 13.4934 4.22831 9.70167C4.0147 8.99611 3.9079 8.64333 3.90626 8.12715C3.90444 7.55437 4.11959 6.77876 4.41882 6.27938C4.68848 5.82934 5.04157 5.49832 5.74773 4.83629L5.95791 4.63925C6.6665 3.97495 7.02079 3.6428 7.4013 3.46237C8.15805 3.10353 9.05174 3.10353 9.80848 3.46237C10.189 3.6428 10.5433 3.97495 11.2519 4.63925L11.5117 4.88284C11.9778 5.31985 12.2109 5.53835 12.3633 5.75807C12.938 6.58668 12.938 7.65491 12.3633 8.48352C12.2109 8.70325 11.9778 8.92175 11.5117 9.35876C11.3593 9.50165 11.2831 9.57309 11.2193 9.65661C10.9926 9.9534 10.9143 10.3837 11.0233 10.7342C11.054 10.8328 11.0939 10.9107 11.1737 11.0666Z" stroke="white" stroke-width="2" stroke-linecap="round" stroke-linejoin="round"/>
</svg>
